<?xml version="1.0" standalone="no"?>
<!DOCTYPE svg PUBLIC "-//W3C//DTD SVG 20010904//EN"
 "http://www.w3.org/TR/2001/REC-SVG-20010904/DTD/svg10.dtd">
<svg version="1.0" xmlns="http://www.w3.org/2000/svg"
 width="1276.000000pt" height="681.000000pt" viewBox="0 0 1276.000000 681.000000"
 preserveAspectRatio="xMidYMid meet">

<g transform="translate(0.000000,681.000000) scale(0.100000,-0.100000)"
fill="#000000" stroke="none">
<path d="M1190 5495 l0 -1045 -450 0 -450 0 0 -1230 0 -1230 950 0 950 0 0
590 0 590 175 0 175 0 0 -842 0 -843 215 3 215 3 0 -596 0 -595 950 0 950 0 0
595 0 595 393 -2 392 -3 3 -592 2 -593 1115 0 1115 0 0 595 0 595 553 -2 552
-3 3 -592 2 -593 945 0 945 0 2 593 3 592 393 0 392 0 0 908 0 907 450 0 450
0 0 1230 0 1230 -450 0 -450 0 0 295 0 295 -3850 0 -3850 0 0 95 0 95 -1395 0
-1395 0 0 -1045z m2708 708 l2 -253 -455 0 -455 0 0 -1230 0 -1230 430 0 430
0 0 -365 0 -365 -437 -2 -438 -3 -3 -593 -2 -592 -173 2 -172 3 -3 843 -2 842
-215 0 -215 0 -2 593 -3 592 -452 3 -453 2 0 998 c0 549 3 1002 7 1005 3 4
592 6 1307 5 l1301 -3 3 -252z m4492 -2288 l0 -2345 -250 0 -250 0 0 595 0
595 -1115 0 -1115 0 0 -595 0 -595 -395 0 -395 0 0 595 0 595 -465 0 -465 0 0
365 0 365 475 0 475 0 0 1230 0 1230 -455 0 -455 0 0 148 c0 82 3 152 7 155 3
4 996 7 2205 7 l2198 0 0 -2345z m3200 2095 l0 -250 -450 0 -450 0 0 -1230 0
-1230 450 0 450 0 0 -865 0 -865 -350 0 -350 0 0 595 0 595 -945 0 -945 0 0
-595 0 -595 -260 0 -260 0 0 2345 0 2345 1555 0 1555 0 0 -250z"/>
</g>
</svg>
